PathFileType	4	(X/Y/Z)	/home/skhan/TracX/Projects/SHARESPACE/EXERCISES/pose-3d/online_20250326-113730_310-350.trc
DataRate	CameraRate	NumFrames	NumMarkers	Units	OrigDataRate	OrigDataStartFrame	OrigNumFrames
30	30	4	37	m	30	0	1200
Frame#	Time	Hip			RHip			RKnee			RAnkle			RBigToe			RSmallToe			RHeel			LHip			LKnee			LAnkle			LBigToe			LSmallToe			LHeel			Spine_01			Spine_02			Spine_03			Spine_04			Spine_05			LLatissimus			RLatissimus			RClavicle			RShoulder			RElbow			RWrist			LClavicle			LShoulder			LElbow			LWrist			Neck			Neck_02			Neck_03			Head			Nose			LEye			LEar			REye			REar		
		X1	Y1	Z1	X2	Y2	Z2	X3	Y3	Z3	X4	Y4	Z4	X5	Y5	Z5	X6	Y6	Z6	X7	Y7	Z7	X8	Y8	Z8	X9	Y9	Z9	X10	Y10	Z10	X11	Y11	Z11	X12	Y12	Z12	X13	Y13	Z13	X14	Y14	Z14	X15	Y15	Z15	X16	Y16	Z16	X17	Y17	Z17	X18	Y18	Z18	X19	Y19	Z19	X20	Y20	Z20	X21	Y21	Z21	X22	Y22	Z22	X23	Y23	Z23	X24	Y24	Z24	X25	Y25	Z25	X26	Y26	Z26	X27	Y27	Z27	X28	Y28	Z28	X29	Y29	Z29	X30	Y30	Z30	X31	Y31	Z31	X32	Y32	Z32	X33	Y33	Z33	X34	Y34	Z34	X35	Y35	Z35	X36	Y36	Z36	X37	Y37	Z37
0	0.0	-0.010055378470456969	-0.5321548394988831	-0.006949387496633437	0.02405594660444647	-0.4573932320493024	-0.1038794704309095	0.4825883585809567	-0.5030826658506559	-0.22534145060907834	0.5605703612185045	-0.9501051998816373	-0.21034920252121275	0.7568850313300831	-1.0485907576912037	-0.22336149073356246	0.7091460143757927	-1.1093511419409237	-0.30811125411359075	0.6420085745655586	-0.855886907409998	-0.08129804362158914	0.144001339029659	-0.44298483339702815	0.10788873674389908	0.4809599940223352	-0.6139916865865587	-0.05832797133907866	0.6941846597500382	-0.7944604408142945	-0.10301657084399132	0.8358917163824137	-0.8937880042584316	-0.2164770641381835	0.8451915620631447	-0.8709242823448564	-0.15876180669116843	0.6907993672012337	-0.7831064227752959	-0.06354541208155444	-0.036330691023290076	-0.47244753631078323	0.024298222475327143	-0.08245759287623235	-0.3945049409395686	0.07246852880574987	-0.140205838126865	-0.2920579671797355	0.13245527365998638	-0.20569397905316011	-0.18473508505536693	0.19876123740719798	-0.26750664955269565	-0.07832768458636491	0.26576422671604855	-0.04143469596492575	-0.2489939476046346	0.23429860798770646	-0.2670597390615672	-0.30953507491268956	0.03143980371765271	-0.27309289642567347	-0.11975523942458001	0.23819889096813873	-0.43975018095679574	-0.12987636834311733	0.13365099746699768	-0.49101205239081575	-0.07588383204906984	-0.10204540389970715	-0.39432130294762463	0.12542463058763964	-0.2763864217745513	-0.23820872375975008	-0.10301913180211167	0.2666695281301736	-0.08528824811719338	-0.09611615122306275	0.3892915443201045	0.07923076363971295	-0.250104257999654	0.06472389940666189	-0.042422358304537104	-0.22505651253770004	-0.24028007608424434	-0.30974289966789337	-0.001984162798247527	0.30721815274822956	-0.32303226986184796	0.03558473863537611	0.3216595033754053	-0.3469822878508981	0.08160465430204458	0.349970687906725	-0.37953083762890266	0.1547471918435957	0.38586352862960827	-0.37016086850588253	0.07309940341727683	0.1811960487742467	-0.3438073796338083	0.12287165895764295	0.24133011920207253	-0.26982826556701545	0.09011893500100243	0.33467024381923016	-0.41399492015292916	0.1021125161537512	0.21433115592866997	-0.4526083825565886	0.03545719107956615	0.23479351605365642
1	0.03333333333333333	-0.008263107966532067	-0.5321259736452353	-0.008039325154118822	0.022466762622344216	-0.46610456439431414	-0.10608848745709619	0.483533328741624	-0.5046846255314136	-0.22531372452939694	0.554604839233567	-0.9527373746907696	-0.2112815703476134	0.7583776943733337	-1.0216243342817994	-0.21295769562284922	0.7069089491638935	-1.0844907453640884	-0.2975872075568413	0.6207266466905372	-0.9161398453557746	-0.10095845423129385	0.14315858387402194	-0.4480752819390902	0.1072424288164656	0.4833596332083857	-0.609270417469286	-0.05525610054468213	0.6937574559365528	-0.7941814458514435	-0.10192124450316692	0.8340290835061404	-0.8949364543071914	-0.21522530437264847	0.8436743660391606	-0.8709612124000271	-0.15713332402226324	0.6915407173849982	-0.782321249770185	-0.06235384985614646	-0.03492815778295913	-0.4730729893779547	0.023611172281472102	-0.08075041535393296	-0.394498250479129	0.0724184123969224	-0.138739777002536	-0.29230358093811737	0.13310162039387696	-0.2035534419863267	-0.1855184193193674	0.19985008869829007	-0.2652740406726165	-0.07807726877919582	0.2666659005374799	-0.039258876252030235	-0.24639453878904938	0.23571035056096537	-0.2655182983250607	-0.31278554838274286	0.03480957297718539	-0.27083723134975296	-0.11944656223823479	0.23994708576734752	-0.4391906977938064	-0.13583943541143945	0.13202159395165722	-0.49149669584089145	-0.0795683413989814	-0.10229593584282476	-0.39428539350382863	0.1225034430088901	-0.27684903772588015	-0.23638425868713384	-0.10324985593523675	0.26772978316904694	-0.08421901085558013	-0.09725552972072739	0.3890161267381723	0.0795302797131701	-0.24855046363335953	0.06505507879857886	-0.041530985422510686	-0.22467419852947657	-0.23996090761576597	-0.3072165630030574	-0.0014503156019067408	0.3079435132032813	-0.3208493859170665	0.03717557950315781	0.3226805111366177	-0.3458089908825291	0.08310428304580106	0.3509187358198339	-0.37904901121982537	0.15776056607234507	0.3876616747989194	-0.3715410216226335	0.0718936226736344	0.18250676577487296	-0.3441827313316712	0.12131726477867309	0.24192557743805676	-0.26902268461368745	0.08849639217603245	0.3354280208398307	-0.4145891225916806	0.1001149173287722	0.21597110014738186	-0.4513626139638234	0.03423310825284642	0.23589956206254772
2	0.06666666666666667	-0.004934840759417905	-0.5242684711483884	-0.0009968809942173659	0.14819262098029412	-0.20283876584198815	-0.019381522625014358	0.5493813337683906	-0.3162933779730549	-0.15715738656949105	0.6621551591362149	-0.5715517914253279	-0.104484805632019	0.8485417946482561	-0.6218502313616004	-0.10511373849377231	0.8022849285639989	-0.6371811795511999	-0.17038388454249728	0.719025201914744	-0.5671756174392546	-0.014886672796249112	0.25776342989019163	-0.19501186551743244	0.17274800599397927	0.5478711469663886	-0.43312545272073166	-0.0039024322214865417	0.7822061505788486	-0.47192842848408983	-0.01852908114333697	0.9167329970071117	-0.5425050603749417	-0.12185582139493992	0.9260108948433737	-0.5189088756380282	-0.06600815208419453	0.7829934354959003	-0.45346525358945405	0.019812554947800612	-0.013825744806493541	-0.43320389801012554	0.04095545078828	-0.02825627741586302	-0.2966205164252321	0.10295477041369837	-0.030855619224900765	-0.09652040297783634	0.1816756878790115	-0.0012641415184719007	0.1686802056436603	0.274444982457321	-0.06148593139805544	0.25466313429043297	0.33344355267394105	0.1494015887444115	0.11883802234508092	0.3068995601563248	-0.07333188890466116	0.031576641251692655	0.11922430008731269	-0.05482754286636499	0.23654876223308935	0.31232525686548035	-0.23137046356741214	0.18814646212956704	0.22400034809938035	-0.27664363825387095	0.2325685206245462	0.010642943990138737	-0.1812278124966467	0.42283660003699397	-0.1540411148225278	-0.022901064526158393	0.25281769575838964	0.3384082788560099	0.07181211958854884	0.1755840205906936	0.44885867710252214	0.225007768764563	0.056578489887305045	0.1532840860316178	0.1428692059529954	0.13693316106155198	-0.11081844222810208	-0.10555959110324076	0.311109179598431	0.370375026159868	-0.143827151372319	0.3034911342924105	0.3781844798275276	-0.22158775365295405	0.26051555149497524	0.3900621968092525	-0.3755971919772967	0.15941369106883685	0.3912908054686825	-0.17537578591664543	0.37128485183780013	0.27119336373722397	-0.1463470954964803	0.41654795169383907	0.32663554527272765	-0.08450542290674536	0.36922410192262994	0.40418391713856316	-0.20183359360563352	0.4085127120642275	0.3032293316768784	-0.2278852988828271	0.35930653435084314	0.32252298314051153
3	0.1	-0.021639759799165933	-0.5554068311646937	-0.004937736008514295	0.25205637047232404	0.009729988874243145	0.04992026863072553	0.6009253146171387	-0.1736974471561306	-0.106216558811532	0.7134922552589504	-0.40911117920594503	-0.048109695354074035	0.9282849884091029	-0.30978209938811313	-0.021025183762341138	0.8913414849155092	-0.29955990354966977	-0.07134546294340033	0.8015309204619813	-0.27569308082701593	0.05538160806806799	0.3537584514738683	0.017202408507501488	0.2260969677994433	0.592963432188531	-0.3035160401360302	0.033147505893983346	0.8543575919814052	-0.20789119453919622	0.04979916279460985	0.9844749319061822	-0.2505697347204733	-0.042775867084591586	0.9932291662696258	-0.22895450470867004	0.009123872121753078	0.8596669330999605	-0.17197656161267155	0.08972948052550904	-0.030243420990414056	-0.463457218893774	0.03939273622894624	-0.048453933789969955	-0.3351753463422114	0.10034239033599512	-0.059183539618488226	-0.15237099167014834	0.17621826127892806	-0.048831606669922596	0.07721398317517059	0.263120782321959	-0.11028238134047379	0.1667017818025709	0.3211306214585778	0.09034954673195672	-0.004859747537615408	0.2892177283689534	-0.15956991185601935	-0.11490247466848752	0.08662860992001203	-0.10779879871765419	0.13997088781119904	0.2960297915887608	-0.04828325669368534	0.46539729481813125	0.3031255050772472	-0.0949867872527737	0.49800221816348555	0.10927917023916882	-0.006858164263787853	0.6704513284753718	-0.05046240893196462	-0.07607180144568494	0.15505541327035852	0.3222996925566602	0.20475316743453428	0.404143361565636	0.49923488523132054	0.335270577415684	0.28554539292445896	0.2257713479101689	0.3030189714332199	0.4403846791253252	-0.002409261639162566	-0.15930675490431137	0.21998801154860542	0.35604016310696135	-0.18879923273811244	0.2276158928573946	0.3671275021147896	-0.24835698114599442	0.21417586222124907	0.3836175619454083	-0.3696413741587893	0.16202493222550038	0.39370012072335064	-0.0003705032208811687	0.6247935039110981	0.34710381452644556	0.03112238919101719	0.6730869941762293	0.3990936153993925	0.07780761937462854	0.6093766156732183	0.46318655659927355	-0.01226631680725676	0.6703524241798582	0.3771162172969585	-0.02729965887998076	0.6332288291297459	0.3970697507504263
